<?xml version="1.0" encoding="utf-8"?>
<svg xmlns="http://www.w3.org/2000/svg" viewBox="141.362 116.849 93.184 149.898" width="93.184px" height="149.898px"><path d="M 214.818 199.874 C 209.154 199.874 203.765 202.3 200.03 206.526 L 190.764 200.024 C 191.748 197.34 192.315 194.459 192.315 191.442 C 192.31 188.561 191.804 185.709 190.816 183.001 L 200.063 176.569 C 203.793 180.776 209.173 183.188 214.823 183.193 C 225.71 183.17 234.527 174.433 234.546 163.65 C 234.527 152.862 225.71 144.126 214.823 144.107 C 203.94 144.126 195.123 152.862 195.1 163.65 C 195.1 165.58 195.393 167.397 195.922 169.201 L 186.67 175.637 C 182.803 170.887 177.239 167.566 170.899 166.55 L 170.899 155.495 C 180.019 153.579 186.547 145.611 186.562 136.373 C 186.533 125.595 177.712 116.868 166.834 116.849 C 155.951 116.868 147.134 125.604 147.111 136.392 C 147.111 145.667 153.668 153.429 162.428 155.424 L 162.428 166.667 C 150.477 168.69 141.362 179.024 141.362 191.447 C 141.362 203.931 150.566 214.306 162.603 216.311 L 162.603 228.13 C 153.762 230.003 147.115 237.873 147.115 247.204 C 147.139 257.988 155.951 266.724 166.834 266.747 C 177.721 266.724 186.538 257.988 186.557 247.204 C 186.557 237.868 179.915 230.06 171.07 228.13 L 171.07 216.311 C 177.286 215.281 182.747 212.02 186.576 207.378 L 195.903 213.922 C 195.374 215.707 195.1 217.557 195.095 219.417 C 195.118 230.2 203.935 238.936 214.818 238.96 C 225.705 238.936 234.522 230.2 234.541 219.417 C 234.522 208.629 225.705 199.893 214.818 199.874 Z M 214.818 154.183 C 220.089 154.183 224.377 158.436 224.377 163.659 C 224.377 168.882 220.089 173.131 214.818 173.131 C 209.547 173.131 205.259 168.882 205.259 163.659 C 205.259 158.436 209.547 154.183 214.818 154.183 Z M 157.275 136.392 C 157.275 131.169 161.563 126.92 166.838 126.92 C 172.114 126.92 176.398 131.169 176.398 136.392 C 176.398 141.615 172.11 145.864 166.838 145.864 C 161.567 145.864 157.275 141.615 157.275 136.392 Z M 176.393 247.214 C 176.393 252.437 172.105 256.685 166.834 256.685 C 161.563 256.685 157.27 252.437 157.27 247.214 C 157.27 241.991 161.558 237.742 166.834 237.742 C 172.11 237.742 176.393 241.991 176.393 247.214 Z M 166.829 204.671 C 159.473 204.671 153.497 198.745 153.497 191.461 C 153.497 184.177 159.478 178.251 166.829 178.251 C 174.18 178.251 180.161 184.177 180.161 191.461 C 180.161 198.745 174.18 204.671 166.829 204.671 Z M 214.813 228.898 C 209.542 228.898 205.254 224.645 205.254 219.422 C 205.254 214.199 209.542 209.95 214.813 209.95 C 220.084 209.95 224.372 214.199 224.372 219.422 C 224.372 224.645 220.084 228.898 214.813 228.898 Z" style="stroke-width: 1; fill: rgb(255, 255, 255);" id="object-0" transform="matrix(1, 0, 0, 1, 1.4210854715202004e-14, 0)"/></svg>